<svg width="6" height="16" viewBox="0 0 6 16" fill="none" xmlns="http://www.w3.org/2000/svg">
<path d="M5.11719 15.3359C4.61198 15.3203 4.17448 15.2031 3.80469 14.9844C3.4349 14.7656 3.1276 14.4766 2.88281 14.1172C2.64844 13.7734 2.47135 13.388 2.35156 12.9609C2.23177 12.5391 2.17188 12.1198 2.17188 11.7031V10.3828C2.17188 9.63281 1.99219 9.08854 1.63281 8.75C1.27865 8.41146 0.734375 8.23958 0 8.23438V7.10156C0.734375 7.10156 1.27865 6.9349 1.63281 6.60156C1.99219 6.26302 2.17188 5.71615 2.17188 4.96094V3.63281C2.17188 3.21094 2.22656 2.78125 2.33594 2.34375C2.45052 1.90104 2.63021 1.50521 2.875 1.15625C3.10417 0.822917 3.40365 0.552083 3.77344 0.34375C4.14323 0.130208 4.59115 0.015625 5.11719 0L5.28125 0.898438C4.90625 0.908854 4.60677 0.997396 4.38281 1.16406C4.16406 1.33073 4 1.54167 3.89062 1.79688C3.77604 2.05729 3.70312 2.34896 3.67188 2.67188C3.64062 2.99479 3.625 3.3151 3.625 3.63281V4.96094C3.625 5.58594 3.47917 6.13542 3.1875 6.60938C2.90104 7.07812 2.45573 7.4349 1.85156 7.67969C2.45573 7.91927 2.90104 8.27604 3.1875 8.75C3.47396 9.21875 3.61979 9.76302 3.625 10.3828V11.7031C3.625 12.026 3.65104 12.3464 3.70312 12.6641C3.75521 12.987 3.84635 13.276 3.97656 13.5312C4.10156 13.7917 4.26823 14.0052 4.47656 14.1719C4.6901 14.3385 4.95833 14.4271 5.28125 14.4375L5.11719 15.3359Z" fill="#F8F5EC"/>
</svg>
